<svg width="85" height="98" viewBox="0 0 85 98" fill="none" xmlns="http://www.w3.org/2000/svg">
<path fill-rule="evenodd" clip-rule="evenodd" d="M46.2192 96.5396C40.0323 95.8274 37.3211 96.7307 32.4716 96.1285C23.3226 94.7425 17.9136 83.7746 14.7579 77.7174C9.18818 65.2882 4.93095 62.9622 4.32548 59.5611C2.5909 53.9053 -1.88783 48.0932 0.883326 44.6418C3.92829 40.9204 12.5828 47.905 15.0903 52.9303C17.1857 58.7193 19.7107 62.5354 24.609 63.8457C26.963 64.215 26.0685 54.6676 26.0937 53.3197C26.0122 49.2894 24.4516 46.9464 25.5943 41.1144C26.0911 37.2604 24.6959 31.6263 24.9899 29.5524C25.8858 18.2557 24.5892 19.195 25.0091 14.4562C25.0254 12.1354 24.6548 7.39264 26.8193 4.92148C28.1722 3.5392 31.3153 3.01652 32.9707 4.69087C34.9098 7.62298 35.042 9.69225 35.3428 12.7406C35.4635 14.2678 35.6168 15.7404 35.3428 18.2415C35.3632 21.8486 35.6735 25.389 36.3008 28.9546C36.8461 32.9959 36.9594 36.9149 37.4504 40.9224C38.5333 46.9596 41.795 45.9823 41.9531 42.1771C42.742 36.1554 42.0007 29.0156 41.9338 25.7142C42.2526 22.4202 41.7632 14.6039 41.7615 14.3813C42.3475 10.5597 42.2836 7.93241 43.2943 4.44032C43.9554 2.43031 44.8185 0.0599119 47.797 0.000651945C51.0487 -0.0384152 51.4967 1.68497 51.8207 3.37866C52.1307 7.65831 52.6063 12.2041 52.7975 14.0868C52.5486 19.0717 52.6722 23.0919 53.0087 26.3854C53.2505 30.129 51.8072 39.6222 52.6174 44.3825C53.6168 47.53 55.1768 47.0401 55.8601 44.4683C56.9599 38.7951 57.3373 36.1294 58.144 28.5704C58.9679 23.5536 60.0658 21.187 60.5199 14.7283C61.0084 10.5946 61.8745 5.92036 63.8921 4.63517C65.6016 3.61721 66.5419 3.9918 67.3409 4.34563C70.9053 7.81146 69.9672 11.8685 69.7365 15.8853C69.2217 20.0047 68.5095 26.4625 68.4906 30.4042C67.8825 35.2944 66.0093 40.9528 65.9039 45.3639C65.7806 52.125 69.0595 47.7459 71.1154 44.8232C72.1198 43.1186 72.7392 41.4004 73.6411 39.8601C77.2681 33.6658 77.5038 25.9253 81.5198 23.9371C82.9243 23.4156 84.4996 24.2008 84.9687 26.2534C85.5145 34.7575 78.7835 46.2358 76.0591 54.6287C72.716 68.1251 77.0813 85.9438 66.3109 94.661C59.7841 100.462 50.4849 97.0513 46.2175 96.5406L46.2192 96.5396Z" fill="#4B3D5C"/>
</svg>
