<svg width="70" height="96" viewBox="0 0 70 96" fill="none" xmlns="http://www.w3.org/2000/svg">
<path d="M32.5083 71.4407C38.4413 74.1409 41.2562 74.5267 47.4922 73.2837L41.6026 77.4412L38.9176 93.1284L38.1814 77.0126L32.5083 71.4407ZM1.06809 34.366C-0.187788 36.2947 -0.447625 37.6663 0.894865 39.595L21.6385 69.0405L17.5677 96H54.9842V72.9837L65.2911 52.3676C66.6336 49.7102 66.8934 47.9957 66.8934 42.1238L54.5511 54.7678L44.1144 49.453L40.953 66.1259C37.6185 50.7388 30.2564 41.3523 18.6937 36.509L21.9849 30.2513C35.3232 37.3234 40.2601 25.2366 38.1381 24.2508L17.3512 14.3927C15.6189 13.5784 14.5796 13.6212 13.5186 15.2928L1.06809 34.366ZM63.1258 28.5369L48.7048 44.2668C47.7954 45.2526 53.7283 51.2532 54.6378 50.4817L69.8382 36.9805C71.1374 35.8232 64.2084 27.3368 63.1258 28.5369ZM38.9609 35.4375C38.1814 36.4661 46.5395 43.7525 47.2757 42.9382L62.736 25.9652C64.3383 24.2079 54.0315 15.0785 52.9705 16.5144L38.9609 35.4375ZM39.5672 6.46346L32.032 18.9789L38.831 22.4935C40.5633 23.3935 41.0829 25.9223 39.4806 31.6657L51.6063 14.2213C52.8622 12.3354 40.6499 4.6633 39.5672 6.46346V6.46346ZM25.4061 0.377201L18.5205 12.6783L30.0832 18.0788L37.2287 6.37774C38.398 4.44899 26.4888 -1.55154 25.4061 0.377201Z" fill="white"/>
</svg>
