<svg width="94" height="130" viewBox="0 0 94 130" fill="none" xmlns="http://www.w3.org/2000/svg">
<path d="M43.6539 96.7426C51.621 100.399 55.401 100.922 63.7752 99.2383L55.8662 104.868L52.2607 126.111L51.2721 104.288L43.6539 96.7426ZM1.43417 46.5372C-0.252298 49.149 -0.601221 51.0064 1.20155 53.6182L29.0573 93.4923L23.5908 130H73.8358V98.8321L87.6764 70.9144C89.4792 67.3158 89.8281 64.9942 89.8281 57.0426L73.2543 74.1647L59.2392 66.9676L54.9939 89.5455C50.5161 68.7088 40.6299 55.9979 25.1028 49.4393L29.5225 40.9653C47.4339 50.542 54.0635 34.1745 51.2139 32.8396L23.3 19.4901C20.9739 18.3874 19.5782 18.4454 18.1534 20.709L1.43417 46.5372ZM84.7687 38.6436L65.4035 59.9447C64.1823 61.2796 72.1493 69.4053 73.3706 68.3606L93.7826 50.0777C95.5272 48.5106 86.2226 37.0185 84.7687 38.6436ZM52.3189 47.9882C51.2721 49.3812 62.4958 59.2482 63.4844 58.1454L84.2453 35.1612C86.397 32.7815 72.5564 20.4188 71.1316 22.3632L52.3189 47.9882ZM53.133 8.75258L43.0142 25.7005L52.1444 30.4599C54.4705 31.6787 55.1684 35.1031 53.0167 42.8806L69.2998 19.258C70.9863 16.7042 54.5868 6.31486 53.133 8.75258V8.75258ZM34.1167 0.510772L24.8702 17.1685L40.3973 24.4817L49.9927 8.6365C51.5628 6.02466 35.5705 -2.10107 34.1167 0.510772Z" fill="#4B3D5C"/>
</svg>
