<svg width="54" height="111" viewBox="0 0 54 111" fill="none" xmlns="http://www.w3.org/2000/svg">
<path d="M48.7318 111H15.1165L14.2761 98.878C12.6759 93.1146 10.6472 89.2661 7.55309 85.2852C3.70694 81.0027 1.56621 72.2859 0.998047 58.1C1.0834 54.505 1.47308 53.3611 4.47161 50.8358C5.31198 50.2641 8.16932 49.4829 10.1861 50.3456C10.9475 50.0225 11.4714 50.7833 10.6903 47.8945C8.76587 44.7099 6.06621 41.6084 6.09621 38.2682C6.14211 34.6548 8.70895 33.2459 11.8668 32.6975C13.2675 32.7821 13.8277 32.593 15.5085 33.0986C16.7743 33.3791 17.0156 32.6815 16.7971 31.8062C11.7138 22.377 9.68393 13.1666 6.3762 3.86347C5.77857 2.22939 6.60033 1.01124 8.84135 0.209068C12.1732 -0.481371 14.3231 0.5739 15.5644 2.97217L23.8001 20.2194L28.9544 34.124C30.0936 37.4742 32.4654 39.0556 34.1088 39.0261C35.7355 39.0295 37.3821 38.6604 38.1986 36.1293L44.2491 2.43742C44.3039 0.784949 46.5823 0.0470565 48.507 0.164569C51.0561 0.366542 52.2231 2.03114 53.1571 3.28418C53.0347 7.78264 52.5286 22.303 51.9806 27.6619C51.6322 35.5736 49.9006 44.9876 51.4204 52.2624C52.9361 60.9779 53.1651 68.2594 53.9976 76.239C53.9358 88.3542 51.9742 86.716 50.8601 91.2132C49.6614 93.2794 48.6448 96.0309 48.6191 97.6308L48.7318 111Z" fill="white"/>
</svg>
