<svg width="65" height="135" viewBox="0 0 65 135" fill="none" xmlns="http://www.w3.org/2000/svg">
<path d="M58.6384 135H18.0464L17.0316 120.257C15.0993 113.247 12.6495 108.567 8.91321 103.725C4.26879 98.5168 1.68376 87.9152 0.997681 70.6621C1.10075 66.2898 1.5713 64.8986 5.19217 61.8273C6.20696 61.1319 9.65733 60.1819 12.0927 61.2311C13.0122 60.8382 13.6448 61.7634 12.7015 58.25C10.3777 54.3769 7.11773 50.6048 7.15395 46.5424C7.20938 42.1476 10.309 40.4341 14.1223 39.7672C15.8136 39.8701 16.4901 39.6401 18.5197 40.255C20.0483 40.5962 20.3397 39.7477 20.0758 38.6832C13.9375 27.2152 11.4863 16.0134 7.49206 4.69877C6.77039 2.71138 7.7627 1.22985 10.4688 0.254231C14.4922 -0.585492 17.0884 0.697945 18.5872 3.61476L28.5322 24.5912L34.7563 41.5021C36.1319 45.5767 38.9959 47.5 40.9805 47.4641C42.9447 47.4682 44.9331 47.0194 45.9191 43.941L53.2254 2.96439C53.2916 0.954627 56.0428 0.0571896 58.367 0.20011C61.4451 0.445753 62.8543 2.47027 63.9822 3.99423C63.8344 9.46533 63.2233 27.1252 62.5616 33.6428C62.1408 43.2651 60.0498 54.7146 61.885 63.5623C63.7153 74.1623 63.9919 83.0182 64.9971 92.723C64.9225 107.458 62.5538 105.465 61.2085 110.935C59.761 113.448 58.5334 116.794 58.5024 118.74L58.6384 135Z" fill="#4B3D5C"/>
</svg>
